<svg xmlns="http://www.w3.org/2000/svg" version="1.1" xmlns:xlink="http://www.w3.org/1999/xlink" xmlns:svgjs="http://svgjs.dev/svgjs" width="2000" height="398" viewBox="0 0 2000 398"><g transform="matrix(1,0,0,1,-1.2121212121212466,-0.9962641448497038)"><svg viewBox="0 0 396 79" data-background-color="#c8c8c8" preserveAspectRatio="xMidYMid meet" height="398" width="2000" xmlns="http://www.w3.org/2000/svg" xmlns:xlink="http://www.w3.org/1999/xlink"><g id="tight-bounds" transform="matrix(1,0,0,1,0.2400000000000091,0.19775092322393562)"><svg viewBox="0 0 395.52 78.60449815355213" height="78.60449815355213" width="395.52"><g><svg viewBox="0 0 515.4432412615115 102.43769545408932" height="78.60449815355213" width="395.52"><g transform="matrix(1,0,0,1,119.92324126151146,14.157452844957355)"><svg viewBox="0 0 395.52 74.12278976417461" height="74.12278976417461" width="395.52"><g id="textblocktransform"><svg viewBox="0 0 395.52 74.12278976417461" height="74.12278976417461" width="395.52" id="textblock"><g><svg viewBox="0 0 395.52 74.12278976417461" height="74.12278976417461" width="395.52"><g transform="matrix(1,0,0,1,0,0)"><svg width="395.52" viewBox="0.75 -37.1 199.28 37.35" height="74.12278976417461" data-palette-color="url(#3f440fc4-20a1-4589-a900-05088f13527e)"></svg></g></svg></g></svg></g></svg></g><g><svg viewBox="0 0 102.42462954514417 102.43769545408932" height="102.43769545408932" width="102.42462954514417"><g><svg xmlns="http://www.w3.org/2000/svg" xmlns:xlink="http://www.w3.org/1999/xlink" version="1.1" x="0" y="0" viewBox="1.025 1.225 97.53755751569823 97.55000000000001" style="enable-background:new 0 0 100 100;" xml:space="preserve" height="102.43769545408932" width="102.42462954514417" class="icon-icon-0" data-fill-palette-color="accent" id="icon-0"></svg></g></svg></g></svg></g><defs></defs><mask id="f8311c74-913f-435f-8321-371709ba52e9"><g id="SvgjsG4040"><svg viewBox="0 0 395.52 78.60449815355213" height="78.60449815355213" width="395.52"><g><svg viewBox="0 0 515.4432412615115 102.43769545408932" height="78.60449815355213" width="395.52"><g transform="matrix(1,0,0,1,119.92324126151146,14.157452844957355)"><svg viewBox="0 0 395.52 74.12278976417461" height="74.12278976417461" width="395.52"><g id="SvgjsG4039"><svg viewBox="0 0 395.52 74.12278976417461" height="74.12278976417461" width="395.52" id="SvgjsSvg4038"><g><svg viewBox="0 0 395.52 74.12278976417461" height="74.12278976417461" width="395.52"><g transform="matrix(1,0,0,1,0,0)"><svg width="395.52" viewBox="0.75 -37.1 199.28 37.35" height="74.12278976417461" data-palette-color="url(#3f440fc4-20a1-4589-a900-05088f13527e)"><path d="M12.4-15.5L14.8-6.25 15.4-6.25 17.9-14.85 23.15-34.8 29.2-33.9 23.25-14.05 19.35-0.4 10.1 0.25 6.55-13.1 0.75-33.55 7.85-34.8 12.4-15.5ZM32.85-24.2L39.55-25.45 38.95-13 39.5-1.25 32.8 0 33.4-12.15 32.85-24.2ZM32.5-32.77Q32.5-34.45 33.8-35.77 35.1-37.1 36.8-37.1 38.5-37.1 39.4-36.18 40.3-35.25 40.3-33.4 40.3-31.55 39.02-30.23 37.75-28.9 36.07-28.9 34.4-28.9 33.45-30 32.5-31.1 32.5-32.77ZM44.1-24.2L47-24.2 47-29.65 53.75-30.95 53.1-24.2 59.15-24.2 58.59-20.1 52.9-20.1 52.65-9.65Q52.65-7.3 53.1-6.53 53.55-5.75 54.75-5.75 55.95-5.75 57.95-6.3L57.95-6.3 58.25-2.75Q54.95 0 52.45 0 49.95 0 48.35-1.83 46.75-3.65 46.75-6.6L46.75-6.6 47.05-12.2 47-20.1 43.55-20.1 44.1-24.2ZM67.79 0Q64.84 0 62.97-1.88 61.09-3.75 61.09-6.93 61.09-10.1 63.99-12.43 66.89-14.75 71.04-14.75L71.04-14.75 74.44-14.75 74.44-15.6Q74.44-18.05 73.44-18.95 72.44-19.85 69.69-19.85L69.69-19.85Q68.54-19.85 66.97-19.38 65.39-18.9 63.44-17.9L63.44-17.9 61.99-21.85Q64.14-23.35 67.22-24.55 70.29-25.75 72.29-25.75L72.29-25.75Q80.14-25.75 80.14-18.15L80.14-18.15 80.14-8.35Q80.14-5.55 81.89-2.1L81.89-2.1 76.59 0.15Q75.34-2.25 74.74-4.15L74.74-4.15Q71.99 0 67.79 0L67.79 0ZM69.89-5.1L69.89-5.1Q71.89-5.1 74.44-7.15L74.44-7.15 74.44-10.5Q71.79-11.1 70.14-11.1L70.14-11.1Q66.99-11.1 66.99-8.3L66.99-8.3Q66.99-6.85 67.79-5.98 68.59-5.1 69.89-5.1ZM100.74-12.65Q100.74-16.1 100.14-17.25 99.54-18.4 97.34-18.4 95.14-18.4 92.34-16.65L92.34-16.65 92.34-13 92.89-1.25 86.19 0 86.79-12.15Q86.59-18.85 85.69-24.15L85.69-24.15 91.74-25.45Q92.09-22.55 92.24-19.8L92.24-19.8Q92.99-20.8 93.94-21.78 94.89-22.75 96.94-23.98 98.99-25.2 101.09-25.2 103.19-25.2 104.64-23.85 106.09-22.5 106.49-20.15L106.49-20.15Q110.64-25.2 114.89-25.2L114.89-25.2Q117.54-25.2 119.09-23.43 120.64-21.65 120.64-18.6L120.64-18.6 120.34-13 120.89-1 114.14 0.25 114.74-12.65Q114.74-16.1 114.14-17.25 113.54-18.4 111.39-18.4 109.24-18.4 106.54-16.75L106.54-16.75 106.34-13 106.89-1 100.14 0.25 100.74-12.65ZM126.39-24.2L133.09-25.45 132.49-13 133.04-1.25 126.34 0 126.94-12.15 126.39-24.2ZM126.04-32.77Q126.04-34.45 127.34-35.77 128.64-37.1 130.34-37.1 132.04-37.1 132.94-36.18 133.84-35.25 133.84-33.4 133.84-31.55 132.56-30.23 131.29-28.9 129.61-28.9 127.94-28.9 126.99-30 126.04-31.1 126.04-32.77ZM153.09-12.65Q153.09-16.1 152.49-17.25 151.88-18.4 149.69-18.4 147.49-18.4 144.69-16.65L144.69-16.65 144.69-13 145.24-1.25 138.53 0 139.13-12.15Q138.94-18.85 138.03-24.15L138.03-24.15 144.09-25.45Q144.44-22.55 144.59-19.8L144.59-19.8Q145.34-20.8 146.28-21.78 147.24-22.75 149.28-23.98 151.34-25.2 153.61-25.2 155.88-25.2 157.44-23.43 158.99-21.65 158.99-18.6L158.99-18.6 158.69-13 159.24-1 152.49 0.25 153.09-12.65ZM192.93-33.5L200.03-34.75 199.33-13 199.93 0 192.93 0 193.53-12.15 193.43-14.8 179.98-14.8 179.93-13 180.53 0 173.53 0 174.13-12.15 173.53-33.5 180.63-34.75 180.13-20.1 193.28-20.1 192.93-33.5Z" opacity="1" transform="matrix(1,0,0,1,0,0)" fill="white" class="wordmark-text-0" id="SvgjsPath4037"></path></svg></g></svg></g></svg></g></svg></g><g><svg viewBox="0 0 102.42462954514417 102.43769545408932" height="102.43769545408932" width="102.42462954514417"><g><svg xmlns="http://www.w3.org/2000/svg" xmlns:xlink="http://www.w3.org/1999/xlink" version="1.1" x="0" y="0" viewBox="1.025 1.225 97.53755751569823 97.55000000000001" style="enable-background:new 0 0 100 100;" xml:space="preserve" height="102.43769545408932" width="102.42462954514417" class="icon-icon-0" data-fill-palette-color="accent" id="SvgjsSvg4036"><path d="M92.4 7.3c-8.1-8.1-21.3-8.1-29.5 0L7.1 63.2C-1 71.3-1 84.5 7.1 92.7c8.1 8.1 21.3 8.1 29.5 0l55.9-55.9C100.6 28.6 100.6 15.4 92.4 7.3zM33.6 89.7c-6.5 6.5-17.1 6.5-23.6 0-6.5-6.5-6.5-17.1 0-23.6l26.5-26.5 23.6 23.6L33.6 89.7zM63 60.3L39.4 36.7l26.5-26.5c6.5-6.5 17.1-6.5 23.6 0 6.5 6.5 6.5 17.1 0 23.6L63 60.3z" fill="black"></path><rect x="72.8" y="36.6" transform="matrix(-0.7071 -0.7071 0.7071 -0.7071 100.4455 118.8552)" width="4.2" height="4.1" fill="black"></rect><path d="M77.7 33l3.1 2.7 3.6-3.6c6.7-6.7 4.1-13.6 1.8-16.3l-3.2 2.7c0.2 0.2 4.1 5-1.6 10.6L77.7 33z" fill="black"></path><path d="M33.5 79.1l2.7 3.1-3.6 3.6c-6.7 6.7-13.6 4.1-16.3 1.8l2.7-3.2c0.2 0.2 5 4.1 10.6-1.6L33.5 79.1z" fill="black"></path></svg></g></svg></g></svg></g><defs><mask></mask></defs></svg><rect width="395.52" height="78.60449815355213" fill="black" stroke="none" visibility="hidden"></rect></g></mask><linearGradient x1="0" x2="1" y1="0.578" y2="0.595" id="3f440fc4-20a1-4589-a900-05088f13527e"><stop stop-color="#6ee2f5" offset="0"></stop><stop stop-color="#6454f0" offset="1"></stop></linearGradient><rect width="395.52" height="78.60449815355213" fill="url(#3f440fc4-20a1-4589-a900-05088f13527e)" mask="url(#f8311c74-913f-435f-8321-371709ba52e9)" data-fill-palette-color="primary"></rect><mask id="5a7e1e33-d158-4fc5-9765-a8c3f8983275"><g id="SvgjsG4049"><svg viewBox="0 0 395.52 78.60449815355213" height="78.60449815355213" width="395.52"><g><svg viewBox="0 0 515.4432412615115 102.43769545408932" height="78.60449815355213" width="395.52"><g transform="matrix(1,0,0,1,119.92324126151146,14.157452844957355)"><svg viewBox="0 0 395.52 74.12278976417461" height="74.12278976417461" width="395.52"><g id="SvgjsG4048"><svg viewBox="0 0 395.52 74.12278976417461" height="74.12278976417461" width="395.52" id="SvgjsSvg4047"><g><svg viewBox="0 0 395.52 74.12278976417461" height="74.12278976417461" width="395.52"><g transform="matrix(1,0,0,1,0,0)"><svg width="395.52" viewBox="0.75 -37.1 199.28 37.35" height="74.12278976417461" data-palette-color="url(#3f440fc4-20a1-4589-a900-05088f13527e)"></svg></g></svg></g></svg></g></svg></g><g><svg viewBox="0 0 102.42462954514417 102.43769545408932" height="102.43769545408932" width="102.42462954514417"><g><svg xmlns="http://www.w3.org/2000/svg" xmlns:xlink="http://www.w3.org/1999/xlink" version="1.1" x="0" y="0" viewBox="1.025 1.225 97.53755751569823 97.55000000000001" style="enable-background:new 0 0 100 100;" xml:space="preserve" height="102.43769545408932" width="102.42462954514417" class="icon-icon-0" data-fill-palette-color="accent" id="SvgjsSvg4046"><path d="M92.4 7.3c-8.1-8.1-21.3-8.1-29.5 0L7.1 63.2C-1 71.3-1 84.5 7.1 92.7c8.1 8.1 21.3 8.1 29.5 0l55.9-55.9C100.6 28.6 100.6 15.4 92.4 7.3zM33.6 89.7c-6.5 6.5-17.1 6.5-23.6 0-6.5-6.5-6.5-17.1 0-23.6l26.5-26.5 23.6 23.6L33.6 89.7zM63 60.3L39.4 36.7l26.5-26.5c6.5-6.5 17.1-6.5 23.6 0 6.5 6.5 6.5 17.1 0 23.6L63 60.3z" fill="white"></path><rect x="72.8" y="36.6" transform="matrix(-0.7071 -0.7071 0.7071 -0.7071 100.4455 118.8552)" width="4.2" height="4.1" fill="white"></rect><path d="M77.7 33l3.1 2.7 3.6-3.6c6.7-6.7 4.1-13.6 1.8-16.3l-3.2 2.7c0.2 0.2 4.1 5-1.6 10.6L77.7 33z" fill="white"></path><path d="M33.5 79.1l2.7 3.1-3.6 3.6c-6.7 6.7-13.6 4.1-16.3 1.8l2.7-3.2c0.2 0.2 5 4.1 10.6-1.6L33.5 79.1z" fill="white"></path></svg></g></svg></g></svg></g><defs><mask></mask></defs><mask><g id="SvgjsG4045"><svg viewBox="0 0 395.52 78.60449815355213" height="78.60449815355213" width="395.52"><g><svg viewBox="0 0 515.4432412615115 102.43769545408932" height="78.60449815355213" width="395.52"><g transform="matrix(1,0,0,1,119.92324126151146,14.157452844957355)"><svg viewBox="0 0 395.52 74.12278976417461" height="74.12278976417461" width="395.52"><g id="SvgjsG4044"><svg viewBox="0 0 395.52 74.12278976417461" height="74.12278976417461" width="395.52" id="SvgjsSvg4043"><g><svg viewBox="0 0 395.52 74.12278976417461" height="74.12278976417461" width="395.52"><g transform="matrix(1,0,0,1,0,0)"><svg width="395.52" viewBox="0.75 -37.1 199.28 37.35" height="74.12278976417461" data-palette-color="url(#3f440fc4-20a1-4589-a900-05088f13527e)"><path d="M12.4-15.5L14.8-6.25 15.4-6.25 17.9-14.85 23.15-34.8 29.2-33.9 23.25-14.05 19.35-0.4 10.1 0.25 6.55-13.1 0.75-33.55 7.85-34.8 12.4-15.5ZM32.85-24.2L39.55-25.45 38.95-13 39.5-1.25 32.8 0 33.4-12.15 32.85-24.2ZM32.5-32.77Q32.5-34.45 33.8-35.77 35.1-37.1 36.8-37.1 38.5-37.1 39.4-36.18 40.3-35.25 40.3-33.4 40.3-31.55 39.02-30.23 37.75-28.9 36.07-28.9 34.4-28.9 33.45-30 32.5-31.1 32.5-32.77ZM44.1-24.2L47-24.2 47-29.65 53.75-30.95 53.1-24.2 59.15-24.2 58.59-20.1 52.9-20.1 52.65-9.65Q52.65-7.3 53.1-6.53 53.55-5.75 54.75-5.75 55.95-5.75 57.95-6.3L57.95-6.3 58.25-2.75Q54.95 0 52.45 0 49.95 0 48.35-1.83 46.75-3.65 46.75-6.6L46.75-6.6 47.05-12.2 47-20.1 43.55-20.1 44.1-24.2ZM67.79 0Q64.84 0 62.97-1.88 61.09-3.75 61.09-6.93 61.09-10.1 63.99-12.43 66.89-14.75 71.04-14.75L71.04-14.75 74.44-14.75 74.44-15.6Q74.44-18.05 73.44-18.95 72.44-19.85 69.69-19.85L69.69-19.85Q68.54-19.85 66.97-19.38 65.39-18.9 63.44-17.9L63.44-17.9 61.99-21.85Q64.14-23.35 67.22-24.55 70.29-25.75 72.29-25.75L72.29-25.75Q80.14-25.75 80.14-18.15L80.14-18.15 80.14-8.35Q80.14-5.55 81.89-2.1L81.89-2.1 76.59 0.15Q75.34-2.25 74.74-4.15L74.74-4.15Q71.99 0 67.79 0L67.79 0ZM69.89-5.1L69.89-5.1Q71.89-5.1 74.44-7.15L74.44-7.15 74.44-10.5Q71.79-11.1 70.14-11.1L70.14-11.1Q66.99-11.1 66.99-8.3L66.99-8.3Q66.99-6.85 67.79-5.98 68.59-5.1 69.89-5.1ZM100.74-12.65Q100.74-16.1 100.14-17.25 99.54-18.4 97.34-18.4 95.14-18.4 92.34-16.65L92.34-16.65 92.34-13 92.89-1.25 86.19 0 86.79-12.15Q86.59-18.85 85.69-24.15L85.69-24.15 91.74-25.45Q92.09-22.55 92.24-19.8L92.24-19.8Q92.99-20.8 93.94-21.78 94.89-22.75 96.94-23.98 98.99-25.2 101.09-25.2 103.19-25.2 104.64-23.85 106.09-22.5 106.49-20.15L106.49-20.15Q110.64-25.2 114.89-25.2L114.89-25.2Q117.54-25.2 119.09-23.43 120.64-21.65 120.64-18.6L120.64-18.6 120.34-13 120.89-1 114.14 0.25 114.74-12.65Q114.74-16.1 114.14-17.25 113.54-18.4 111.39-18.4 109.24-18.4 106.54-16.75L106.54-16.75 106.34-13 106.89-1 100.14 0.25 100.74-12.65ZM126.39-24.2L133.09-25.45 132.49-13 133.04-1.25 126.34 0 126.94-12.15 126.39-24.2ZM126.04-32.77Q126.04-34.45 127.34-35.77 128.64-37.1 130.34-37.1 132.04-37.1 132.94-36.18 133.84-35.25 133.84-33.4 133.84-31.55 132.56-30.23 131.29-28.9 129.61-28.9 127.94-28.9 126.99-30 126.04-31.1 126.04-32.77ZM153.09-12.65Q153.09-16.1 152.49-17.25 151.88-18.4 149.69-18.4 147.49-18.4 144.69-16.65L144.69-16.65 144.69-13 145.24-1.25 138.53 0 139.13-12.15Q138.94-18.85 138.03-24.15L138.03-24.15 144.09-25.45Q144.44-22.55 144.59-19.8L144.59-19.8Q145.34-20.8 146.28-21.78 147.24-22.75 149.28-23.98 151.34-25.2 153.61-25.2 155.88-25.2 157.44-23.43 158.99-21.65 158.99-18.6L158.99-18.6 158.69-13 159.24-1 152.49 0.25 153.09-12.65ZM192.93-33.5L200.03-34.75 199.33-13 199.93 0 192.93 0 193.53-12.15 193.43-14.8 179.98-14.8 179.93-13 180.53 0 173.53 0 174.13-12.15 173.53-33.5 180.63-34.75 180.13-20.1 193.28-20.1 192.93-33.5Z" opacity="1" transform="matrix(1,0,0,1,0,0)" fill="black" class="wordmark-text-0" id="SvgjsPath4042"></path></svg></g></svg></g></svg></g></svg></g><g><svg viewBox="0 0 102.42462954514417 102.43769545408932" height="102.43769545408932" width="102.42462954514417"><g><svg xmlns="http://www.w3.org/2000/svg" xmlns:xlink="http://www.w3.org/1999/xlink" version="1.1" x="0" y="0" viewBox="1.025 1.225 97.53755751569823 97.55000000000001" style="enable-background:new 0 0 100 100;" xml:space="preserve" height="102.43769545408932" width="102.42462954514417" class="icon-icon-0" data-fill-palette-color="accent" id="SvgjsSvg4041"><path d="M92.4 7.3c-8.1-8.1-21.3-8.1-29.5 0L7.1 63.2C-1 71.3-1 84.5 7.1 92.7c8.1 8.1 21.3 8.1 29.5 0l55.9-55.9C100.6 28.6 100.6 15.4 92.4 7.3zM33.6 89.7c-6.5 6.5-17.1 6.5-23.6 0-6.5-6.5-6.5-17.1 0-23.6l26.5-26.5 23.6 23.6L33.6 89.7zM63 60.3L39.4 36.7l26.5-26.5c6.5-6.5 17.1-6.5 23.6 0 6.5 6.5 6.5 17.1 0 23.6L63 60.3z" fill="black"></path><rect x="72.8" y="36.6" transform="matrix(-0.7071 -0.7071 0.7071 -0.7071 100.4455 118.8552)" width="4.2" height="4.1" fill="black"></rect><path d="M77.7 33l3.1 2.7 3.6-3.6c6.7-6.7 4.1-13.6 1.8-16.3l-3.2 2.7c0.2 0.2 4.1 5-1.6 10.6L77.7 33z" fill="black"></path><path d="M33.5 79.1l2.7 3.1-3.6 3.6c-6.7 6.7-13.6 4.1-16.3 1.8l2.7-3.2c0.2 0.2 5 4.1 10.6-1.6L33.5 79.1z" fill="black"></path></svg></g></svg></g></svg></g><defs><mask></mask></defs></svg><rect width="395.52" height="78.60449815355213" fill="black" stroke="none" visibility="hidden"></rect></g></mask></svg><rect width="395.52" height="78.60449815355213" fill="black" stroke="none" visibility="hidden"></rect></g></mask><linearGradient x1="0" x2="1" y1="0.578" y2="0.595" id="0e595909-4e10-40d5-a833-7e63107b5f8b"><stop stop-color="#6ee2f5" offset="0"></stop><stop stop-color="#6454f0" offset="1"></stop></linearGradient><rect width="395.52" height="78.60449815355213" fill="url(#0e595909-4e10-40d5-a833-7e63107b5f8b)" mask="url(#5a7e1e33-d158-4fc5-9765-a8c3f8983275)" data-fill-palette-color="accent"></rect></svg><rect width="395.52" height="78.60449815355213" fill="none" stroke="none" visibility="hidden"></rect></g></svg></g></svg>